<svg width="293" height="100" viewBox="0 0 293 100" fill="none" xmlns="http://www.w3.org/2000/svg">
<mask id="mask0_1_16" style="mask-type:luminance" maskUnits="userSpaceOnUse" x="0" y="0" width="293" height="100">
<path d="M276.571 8.08663C276.571 12.6078 280.008 16.4657 284.802 16.4657C289.333 16.4657 292.905 12.6078 292.905 8.08663C292.905 3.54908 289.333 -3.02282e-05 284.802 -3.02282e-05C280.008 -3.02282e-05 276.571 3.54908 276.571 8.08663ZM115.189 8.08022V28.6501C110.664 26.5914 103.815 24.6806 97.2191 24.6806C79.5384 24.6806 69.3831 35.2234 67.863 52.2441C67.4558 57.1954 67.4558 66.9337 67.863 71.7372C69.3831 88.5938 80.6187 100 99.1432 100C112.444 100 123.551 94.0835 127.127 91.4634C129.327 89.9695 129.744 88.4527 129.744 85.9803V8.08022C129.744 3.9695 126.572 0.6697 122.458 0.6697C118.495 0.6697 115.189 3.9695 115.189 8.08022ZM82.3916 69.9347C81.9976 65.686 82.1257 57.6058 82.3916 53.8858C82.9597 43.8848 87.8945 38.661 98.3157 38.661C105.464 38.661 112.316 41.1399 115.189 42.926V81.0453C112.444 83.1171 105.322 85.9803 99.4157 85.9803C88.8467 85.9803 83.2322 80.5004 82.3916 69.9347ZM209.394 32.216C207.348 33.5982 206.498 34.9739 206.498 37.8369V91.7392C206.498 95.8597 209.932 99.1627 213.787 99.1627C217.888 99.1627 221.059 95.8597 221.059 91.7392V42.5222C224.188 40.5916 230.65 38.661 237.358 38.661C245.878 38.661 253.298 43.3365 253.298 54.3126V91.7392C253.298 95.8597 256.713 99.1627 260.554 99.1627C264.819 99.1627 267.834 95.8597 267.834 91.7392V53.6199C267.834 35.0921 257.672 24.6806 237.788 24.6806C223.387 24.6806 213.367 29.2084 209.394 32.216ZM147.408 28.7781C143.708 30.4362 142.595 33.1779 142.595 35.5189C142.595 39.7675 146.587 42.9261 152.622 40.9988C156.467 39.6264 161.956 37.9846 167.577 37.9846C178.261 37.9846 182.802 41.964 182.802 51.2886V55.8066C176.485 54.3127 171.806 53.495 165.371 53.495C146.173 53.495 137.525 64.3332 137.525 76.2582C137.525 89.7034 146.843 100 165.64 100C179.913 100 190.347 94.9009 194.195 92.3071C196.244 90.9248 196.789 89.4344 196.789 86.9555V51.2886C196.789 32.7641 185.948 24.6806 168.392 24.6806C160.045 24.6806 151.391 26.8574 147.408 28.7781ZM151.794 75.7232C151.794 69.1302 157.823 65.4135 166.192 65.4135C172.378 65.4135 176.764 66.2441 182.802 67.7413V82.9858C181.42 84.066 176.36 87.2378 166.885 87.2378C157.15 87.2378 151.794 83.1172 151.794 75.7232ZM9.8434 28.7781C6.14638 30.4362 5.03004 33.1779 5.03004 35.5189C5.03004 39.7675 9.01599 42.9261 15.0573 40.9988C18.8988 39.6264 24.3984 37.9846 30.0063 37.9846C40.7165 37.9846 45.2376 41.964 45.2376 51.2886V55.8066C38.9205 54.3127 34.2615 53.495 27.813 53.495C9.26225 53.495 0.568014 63.6176 0 75.0468V77.565C0.587714 90.3568 9.90249 100 28.079 100C42.3647 100 52.7761 94.9009 56.634 92.3071C58.6861 90.9248 59.2278 89.4344 59.2278 86.9555V51.2886C59.2278 32.7641 48.3863 24.6806 30.8337 24.6806C22.4645 24.6806 13.8294 26.8574 9.8434 28.7781ZM14.243 75.7232C14.243 69.1302 20.2679 65.4135 28.6371 65.4135C34.8065 65.4135 39.2094 66.2441 45.2376 67.7413V82.9858C43.8717 84.066 38.7793 87.2378 29.3168 87.2378C19.585 87.2378 14.243 83.1172 14.243 75.7232ZM277.529 33.3322V92.0313C277.529 96.1486 280.964 99.4549 284.802 99.4549C288.912 99.4549 292.091 96.1486 292.091 92.0313V33.3322C292.091 29.2215 288.784 25.9217 284.802 25.9217C280.684 25.9217 277.529 29.2215 277.529 33.3322Z" fill="white"/>
</mask>
<g mask="url(#mask0_1_16)">
<path d="M276.571 8.08663C276.571 12.6078 280.008 16.4657 284.802 16.4657C289.333 16.4657 292.905 12.6078 292.905 8.08663C292.905 3.54908 289.333 -3.02282e-05 284.802 -3.02282e-05C280.008 -3.02282e-05 276.571 3.54908 276.571 8.08663ZM115.189 8.08022V28.6501C110.664 26.5914 103.815 24.6806 97.2191 24.6806C79.5384 24.6806 69.3831 35.2234 67.863 52.2441C67.4558 57.1954 67.4558 66.9337 67.863 71.7372C69.3831 88.5938 80.6187 100 99.1432 100C112.444 100 123.551 94.0835 127.127 91.4634C129.327 89.9695 129.744 88.4527 129.744 85.9803V8.08022C129.744 3.9695 126.572 0.6697 122.458 0.6697C118.495 0.6697 115.189 3.9695 115.189 8.08022ZM82.3916 69.9347C81.9976 65.686 82.1257 57.6058 82.3916 53.8858C82.9597 43.8848 87.8945 38.661 98.3157 38.661C105.464 38.661 112.316 41.1399 115.189 42.926V81.0453C112.444 83.1171 105.322 85.9803 99.4157 85.9803C88.8467 85.9803 83.2322 80.5004 82.3916 69.9347ZM209.394 32.216C207.348 33.5982 206.498 34.9739 206.498 37.8369V91.7392C206.498 95.8597 209.932 99.1627 213.787 99.1627C217.888 99.1627 221.059 95.8597 221.059 91.7392V42.5222C224.188 40.5916 230.65 38.661 237.358 38.661C245.878 38.661 253.298 43.3365 253.298 54.3126V91.7392C253.298 95.8597 256.713 99.1627 260.554 99.1627C264.819 99.1627 267.834 95.8597 267.834 91.7392V53.6199C267.834 35.0921 257.672 24.6806 237.788 24.6806C223.387 24.6806 213.367 29.2084 209.394 32.216ZM147.408 28.7781C143.708 30.4362 142.595 33.1779 142.595 35.5189C142.595 39.7675 146.587 42.9261 152.622 40.9988C156.467 39.6264 161.956 37.9846 167.577 37.9846C178.261 37.9846 182.802 41.964 182.802 51.2886V55.8066C176.485 54.3127 171.806 53.495 165.371 53.495C146.173 53.495 137.525 64.3332 137.525 76.2582C137.525 89.7034 146.843 100 165.64 100C179.913 100 190.347 94.9009 194.195 92.3071C196.244 90.9248 196.789 89.4344 196.789 86.9555V51.2886C196.789 32.7641 185.948 24.6806 168.392 24.6806C160.045 24.6806 151.391 26.8574 147.408 28.7781ZM151.794 75.7232C151.794 69.1302 157.823 65.4135 166.192 65.4135C172.378 65.4135 176.764 66.2441 182.802 67.7413V82.9858C181.42 84.066 176.36 87.2378 166.885 87.2378C157.15 87.2378 151.794 83.1172 151.794 75.7232ZM9.8434 28.7781C6.14638 30.4362 5.03004 33.1779 5.03004 35.5189C5.03004 39.7675 9.01599 42.9261 15.0573 40.9988C18.8988 39.6264 24.3984 37.9846 30.0063 37.9846C40.7165 37.9846 45.2376 41.964 45.2376 51.2886V55.8066C38.9205 54.3127 34.2615 53.495 27.813 53.495C9.26225 53.495 0.568014 63.6176 0 75.0468V77.565C0.587714 90.3568 9.90249 100 28.079 100C42.3647 100 52.7761 94.9009 56.634 92.3071C58.6861 90.9248 59.2278 89.4344 59.2278 86.9555V51.2886C59.2278 32.7641 48.3863 24.6806 30.8337 24.6806C22.4645 24.6806 13.8294 26.8574 9.8434 28.7781ZM14.243 75.7232C14.243 69.1302 20.2679 65.4135 28.6371 65.4135C34.8065 65.4135 39.2094 66.2441 45.2376 67.7413V82.9858C43.8717 84.066 38.7793 87.2378 29.3168 87.2378C19.585 87.2378 14.243 83.1172 14.243 75.7232ZM277.529 33.3322V92.0313C277.529 96.1486 280.964 99.4549 284.802 99.4549C288.912 99.4549 292.091 96.1486 292.091 92.0313V33.3322C292.091 29.2215 288.784 25.9217 284.802 25.9217C280.684 25.9217 277.529 29.2215 277.529 33.3322Z" fill="url(#paint0_linear_1_16)"/>
</g>
<defs>
<linearGradient id="paint0_linear_1_16" x1="-137.326" y1="74.824" x2="408.631" y2="27.0589" gradientUnits="userSpaceOnUse">
<stop stop-color="#00B16B"/>
<stop offset="0.350006" stop-color="#006DB6"/>
<stop offset="0.649994" stop-color="#8E278F"/>
<stop offset="0.899994" stop-color="#F04C23"/>
<stop offset="1" stop-color="#F04C23"/>
</linearGradient>
</defs>
</svg>
