<svg width="392" height="60" viewBox="0 0 392 60" fill="none" xmlns="http://www.w3.org/2000/svg">
<path fill-rule="evenodd" clip-rule="evenodd" d="M0 29.9994V60L31.2271 59.8124C54.3589 59.6735 62.947 59.4716 64.354 59.0335C65.3988 58.7082 67.3508 58.1335 68.6913 57.7559C78.6187 54.9645 82.9442 44.1953 77.2972 36.3315C75.8902 34.3724 70.5483 30.4957 69.234 30.4803C67.0017 30.453 67.4802 29.5292 70.4165 28.1982C83.171 22.4147 82.8183 7.51826 69.8158 2.82826C63.0562 0.389458 63.5098 0.420305 30.7522 0.203022L0 0V29.9994ZM113.415 0.92259C113.02 1.37972 110.6 5.28013 108.036 9.59018C105.473 13.9002 102.457 18.9227 101.335 20.7512C100.212 22.5797 98.4212 25.5718 97.3538 27.4003C96.2876 29.2288 95.0515 31.3067 94.6075 32.0179C90.5551 38.5091 78.3646 59.1154 78.3646 59.474C78.3646 59.7566 82.5536 59.9335 89.2478 59.9335H100.131L102.475 55.7778C103.763 53.4922 105.622 50.2329 106.607 48.535C107.592 46.8371 108.986 44.3794 109.706 43.0733C110.425 41.7672 113.094 37.0653 115.636 32.6246C120.347 24.3999 122.366 20.8141 124.196 17.4266C124.76 16.3818 125.526 15.4734 125.896 15.4081C126.454 15.3096 138.207 35.3449 138.207 36.3957C138.207 36.5417 134.926 36.6616 130.916 36.6616C123.582 36.6616 121.205 37.0475 119.513 38.5103C118.611 39.2904 115.41 43.8913 115.41 44.4078C115.41 44.5645 114.875 45.4812 114.222 46.4429C113.569 47.4059 113.035 48.3771 113.035 48.6015C113.035 48.8259 120.291 49.0099 129.16 49.0099H145.286L146.653 51.0284C147.406 52.1386 148.85 54.5964 149.863 56.4902L151.704 59.9335H162.766C168.85 59.9335 173.827 59.8017 173.827 59.6403C173.827 59.366 167.885 49.3816 165.523 45.6854C164.658 44.333 148.694 17.8386 146.987 14.9225C146.723 14.4713 145.574 12.4992 144.435 10.5401C143.297 8.58095 141.414 5.42852 140.252 3.53471L138.139 0.0914525H126.136C115.293 0.0914525 114.063 0.172189 113.415 0.92259ZM217.046 20.6408C217.046 49.8755 219.441 47.2883 192.196 47.4818C181.794 47.5566 173.353 47.7704 173.439 47.9568C175.465 52.3856 179.538 58.0551 181.426 59.075C183.811 60.3633 221.674 60.1342 225.058 58.8115C228.41 57.4995 229.532 56.7942 231.329 54.8671C235.767 50.1035 235.806 49.8269 235.806 22.8884V0.328914L226.426 0.200704L217.046 0.071243V20.6408ZM269.96 0.454759C269.539 0.740909 263.752 10.0247 260.27 16.0018C259.604 17.144 256.635 22.1167 253.603 27.1629C253.368 27.5547 250.039 33.1114 246.206 39.5112C242.373 45.911 238.091 53.0339 236.691 55.3409C235.29 57.6479 234.144 59.6284 234.144 59.7435C234.144 59.8575 239.095 59.8931 245.147 59.8231L256.149 59.6961L257.885 56.8464C258.84 55.2792 260.383 52.6076 261.314 50.9097C262.245 49.2118 265.756 43.0079 269.116 37.1246C272.476 31.2402 276.615 23.9214 278.313 20.8604C281.775 14.6186 282.113 14.4429 284 17.9016C284.713 19.2077 286.109 21.6654 287.103 23.3633C288.097 25.0612 289.485 27.5191 290.188 28.8251C290.889 30.1312 292.029 32.1616 292.719 33.337C294.714 36.7328 294.836 36.6616 286.981 36.664C278.871 36.6675 277.153 37.0285 275.141 39.1503C273.576 40.7995 269.289 47.6517 269.289 48.5018C269.289 48.8521 274.186 49.0123 285.081 49.0171C293.766 49.0206 301.093 49.1809 301.363 49.3733C301.909 49.7616 303.982 53.0469 306.304 57.2026L307.829 59.9335H318.717C330.708 59.9335 330.472 60.0036 328.453 57.0328C327.819 56.1008 326.885 54.6083 326.377 53.7166C325.869 52.8261 321.022 44.7236 315.606 35.7117C310.191 26.6998 305.35 18.6164 304.849 17.7484C304.347 16.8805 303.56 15.5981 303.099 14.8988C302.637 14.1994 302.012 13.1997 301.712 12.6773C298.845 7.70111 295.124 1.59463 294.549 0.92259C293.8 0.0463311 271.201 -0.383504 269.96 0.454759ZM373.143 0.408454C372.968 0.581806 372.826 10.039 372.824 21.4244C372.824 50.056 375.458 47.2467 348.293 47.5851L329.22 47.8226L332.055 52.3345C337.239 60.5853 335.269 60.0475 359.527 59.829C382.264 59.6224 384.023 59.2626 388.451 53.9113C391.685 50.0014 391.823 48.744 391.823 23.076V0.0914525H382.641C377.59 0.0914525 373.316 0.233914 373.143 0.408454ZM53.8686 12.8946C59.189 14.1282 60.3752 18.6638 56.0426 21.2024C54.5038 22.1036 53.39 22.1938 41.0821 22.4135C25.5528 22.6913 26.4944 22.3957 23.1259 28.0569C18.7909 35.346 19.0319 35.6096 19.0129 23.5616C19.0046 17.7923 19.14 12.9302 19.3145 12.7568C19.7966 12.2736 51.742 12.4018 53.8686 12.8946ZM56.1791 36.3149C59.1795 38.6029 59.525 42.6589 56.9307 45.1084C54.5881 47.3192 53.3212 47.5104 40.7104 47.5495C25.9921 47.5947 26.7152 47.3453 22.8017 53.7142C21.1798 56.3525 19.6612 58.6298 19.4261 58.7747C19.1756 58.9302 18.9975 53.9861 18.9975 46.8846V34.7286L36.7269 34.864L54.4551 34.9993L56.1791 36.3149Z" fill="#041C4A"/>
</svg>
