<svg width="289" height="100" viewBox="0 0 289 100" fill="none" xmlns="http://www.w3.org/2000/svg">
<path fill-rule="evenodd" clip-rule="evenodd" d="M52.3788 54.346H37.9039C34.6964 49.5424 31.7996 45.3924 29.1974 41.8974C26.61 38.4028 23.8043 34.7963 20.7757 31.0806H15.2781V47.3699C15.2781 48.2102 15.4207 48.9502 15.6929 49.5926C15.9642 50.2206 16.5592 50.7172 17.4771 51.0488C17.93 51.2226 18.7201 51.382 19.8578 51.519C20.9954 51.6667 21.9541 51.7535 22.7429 51.7772V54.346H0V51.7772C0.608521 51.727 1.48924 51.643 2.63986 51.519C3.79094 51.4084 4.59271 51.2463 5.04562 51.0488C5.79768 50.7395 6.35184 50.2838 6.68908 49.6794C7.03654 49.0723 7.20656 48.3077 7.20656 47.3699V10.2454C7.20656 9.3935 7.07742 8.65353 6.81683 7.99902C6.57342 7.34359 5.97652 6.84982 5.04562 6.51536C4.41248 6.29379 3.58563 6.09772 2.57577 5.92259C1.56451 5.73818 0.712574 5.62764 0 5.57748V3.00871H24.8258C27.1024 3.00871 29.236 3.23257 31.2292 3.67619C33.2188 4.1212 35.0322 4.83654 36.6506 5.82364C38.2147 6.78892 39.4707 8.04918 40.4016 9.60439C41.3339 11.1605 41.8105 13.0372 41.8105 15.2362C41.8105 17.2123 41.4881 18.9664 40.8536 20.4835C40.2186 22.0029 39.2877 23.3129 38.0595 24.4231C36.9214 25.4594 35.5483 26.3638 33.9587 27.1159C32.3682 27.8819 30.6077 28.5247 28.6948 29.0538C31.3453 32.4128 33.5444 35.2297 35.3049 37.5272C37.064 39.8108 39.2087 42.602 41.771 45.8741C42.884 47.3318 43.8795 48.3932 44.7881 49.0844C45.6795 49.764 46.5709 50.334 47.4517 50.7646C48.1113 51.074 48.9251 51.3216 49.9206 51.493C50.9044 51.6546 51.7206 51.7535 52.3788 51.7772V54.346ZM32.4449 16.0617C32.4449 12.9504 31.5126 10.493 29.6387 8.66558C27.7755 6.84977 25.1222 5.93705 21.7209 5.93705H15.2781V27.9678H20.2461C23.7253 27.9678 26.6379 26.9064 28.9503 24.7682C31.2808 22.6337 32.4449 19.73 32.4449 16.0617ZM86.6738 45.9494C85.1093 48.8025 83.012 51.0624 80.3889 52.7541C77.7607 54.445 74.7347 55.2849 71.3307 55.2849C68.3155 55.2849 65.6915 54.778 63.4279 53.7654C61.1629 52.7541 59.2997 51.3819 57.8397 49.6414C56.3779 47.911 55.277 45.8741 54.5542 43.5645C53.8407 41.2433 53.4811 38.7981 53.4811 36.2172C53.4811 33.9077 53.868 31.6361 54.6308 29.399C55.4061 27.1656 56.5335 25.1644 58.0343 23.3737C59.4697 21.6684 61.2539 20.2846 63.3884 19.2362C65.5228 18.1855 67.9179 17.6573 70.5699 17.6573C73.298 17.6573 75.6392 18.0633 77.5804 18.8915C79.5328 19.7049 81.1131 20.8295 82.3167 22.2491C83.478 23.6092 84.3443 25.2011 84.9147 27.029C85.4847 28.8694 85.769 30.858 85.769 32.9939V35.3904H61.0221C61.0221 37.7236 61.2539 39.8488 61.7184 41.7487C62.1834 43.6635 62.9234 45.3302 63.944 46.7892C64.9278 48.1837 66.209 49.2832 67.8009 50.0985C69.3914 50.9002 71.294 51.3095 73.4931 51.3095C75.7418 51.3095 77.6845 50.8013 79.3117 49.8021C80.9314 48.8025 82.5076 46.9987 84.0219 44.3914L86.6738 45.9494ZM78.3046 32.351C78.3046 30.9937 78.1885 29.549 77.9423 28.0045C77.6961 26.4614 77.3194 25.1774 76.7917 24.1397C76.2068 23.0286 75.4074 22.1264 74.3961 21.4222C73.3904 20.7189 72.0814 20.3724 70.4909 20.3724C67.8389 20.3724 65.6399 21.4223 63.8794 23.534C62.1217 25.6461 61.1763 28.5852 61.0221 32.351H78.3046ZM107.8 54.346H90.2014V52.0457C90.7635 51.9969 91.3627 51.938 92.0014 51.8785C92.6388 51.8311 93.1613 51.7336 93.5748 51.6165C94.2609 51.4135 94.7718 51.0424 95.11 50.5198C95.4472 49.9944 95.634 49.3134 95.6224 48.4801L95.0482 10.3824C95.0431 9.95183 94.8457 8.70877 94.6083 7.85174C94.5005 7.4634 94.3844 7.15129 94.2739 7.03144C94.1568 6.9037 94.1173 6.77316 93.9538 6.6338C93.3221 6.09403 94.1066 6.84331 93.5167 6.34256C93.127 6.01089 93.6774 6.21757 92.5082 5.98716C91.3483 5.75815 89.4071 6.27008 88.695 6.2227L88.6318 3.71198L101.754 3.02962L102.379 3.53918L102.43 48.0625C102.43 48.8735 102.586 49.5387 102.904 50.0655C103.22 50.5866 103.73 50.9964 104.441 51.27C104.976 51.5088 105.5 51.676 106.025 51.7944C106.552 51.9143 107.149 51.9969 107.8 52.0457V54.346ZM130.414 54.346H112.495V51.9811C113.073 51.9347 113.661 51.885 114.277 51.8353C114.894 51.7875 115.418 51.6904 115.868 51.5412C116.575 51.3336 117.101 50.9541 117.433 50.4157C117.766 49.8769 117.948 49.1778 117.948 48.3207V26.4744C117.948 25.7042 117.754 25.0051 117.395 24.3678C117.035 23.7319 116.522 23.2051 115.868 22.7772C115.395 22.4832 114.714 22.2384 113.804 22.0424C112.905 21.8343 112.085 21.7117 111.327 21.6619V19.3366L124.412 18.5399L124.937 19.043V47.8929C124.937 48.7263 125.103 49.4226 125.438 49.9744C125.771 50.5142 126.31 50.9276 127.041 51.1873C127.592 51.4084 128.132 51.5785 128.657 51.7127C129.183 51.8353 129.759 51.9351 130.414 51.9811V54.346ZM125.681 4.59267C125.681 5.95139 125.219 7.13919 124.27 8.15602C123.333 9.171 122.18 9.68618 120.793 9.68618C119.524 9.68618 118.408 9.19752 117.471 8.22946C116.535 7.26186 116.059 6.14655 116.059 4.91C116.059 3.58797 116.535 2.44894 117.471 1.46926C118.408 0.489592 119.524 -9.36166e-06 120.793 -9.36166e-06C122.231 -9.36166e-06 123.398 0.452866 124.308 1.37308C125.219 2.30166 125.681 3.3668 125.681 4.59267ZM170.385 53.6915C169.194 54.0985 168.159 54.4315 167.268 54.6912C166.362 54.9387 165.353 55.0744 164.216 55.0744C162.235 55.0744 160.671 54.6294 159.492 53.7538C158.315 52.8647 157.566 51.5798 157.241 49.9006H157.009C155.367 51.6281 153.607 52.9622 151.717 53.8773C149.841 54.7896 147.578 55.2481 144.926 55.2481C142.119 55.2481 139.816 54.4315 138.006 52.7908C136.194 51.1478 135.288 49.0003 135.288 46.3563C135.288 44.9734 135.496 43.7503 135.896 42.6638C136.31 41.5777 136.907 40.6004 137.721 39.7248C138.355 39.0085 139.182 38.3661 140.218 37.797C141.252 37.2308 142.235 36.7728 143.141 36.4383C144.279 36.0328 146.582 35.2663 150.05 34.1538C153.53 33.0422 155.872 32.18 157.087 31.5492V27.9678C157.087 27.6584 157.022 27.0537 156.879 26.165C156.736 25.2764 156.441 24.4231 155.987 23.6329C155.482 22.7322 154.769 21.9541 153.838 21.2996C152.922 20.6307 151.615 20.2991 149.92 20.2991C148.756 20.2991 147.682 20.4835 146.685 20.8662C145.689 21.2379 144.978 21.6313 144.578 22.041C144.578 22.5227 144.694 23.2246 144.941 24.1755C145.183 25.1143 145.302 25.9792 145.302 26.7828C145.302 27.6213 144.9 28.3878 144.112 29.091C143.31 29.7966 142.21 30.1418 140.787 30.1418C139.532 30.1418 138.601 29.7098 138.006 28.8578C137.409 28.0045 137.114 27.0406 137.114 25.9792C137.114 24.8667 137.528 23.8066 138.343 22.7931C139.171 21.7818 140.23 20.8783 141.552 20.0881C142.688 19.409 144.059 18.8414 145.676 18.3592C147.293 17.8905 148.872 17.6573 150.412 17.6573C152.533 17.6573 154.384 17.805 155.976 18.0749C157.552 18.3476 158.976 18.9519 160.268 19.867C161.562 20.7557 162.533 21.9648 163.206 23.4959C163.878 25.0302 164.216 27.0053 164.216 29.412C164.216 32.8699 164.176 35.9222 164.097 38.5872C164.021 41.2563 163.983 44.1703 163.983 47.3318C163.983 48.2706 164.149 49.0119 164.499 49.5661C164.836 50.1231 165.365 50.5923 166.065 50.9871C166.453 51.1966 167.049 51.3216 167.862 51.3453C168.69 51.3685 169.532 51.3824 170.385 51.3824V53.6915ZM157.165 34.5867C155.017 35.1915 153.128 35.7838 151.511 36.3645C149.894 36.9465 148.392 37.6614 147.01 38.5384C145.74 39.3551 144.745 40.3306 144.006 41.4524C143.282 42.5654 142.907 43.8989 142.907 45.4421C142.907 47.4423 143.465 48.9237 144.563 49.8625C145.666 50.8013 147.061 51.2714 148.741 51.2714C150.541 51.2714 152.119 50.8515 153.489 50.0246C154.85 49.1964 155.999 48.2102 156.93 47.0726L157.165 34.5867ZM215.365 54.346H197.061V51.9626C197.642 51.9142 198.288 51.8641 198.974 51.8153C199.674 51.7652 200.241 51.6667 200.708 51.519C201.406 51.3095 201.937 50.9253 202.274 50.3828C202.621 49.8388 202.791 49.1355 202.791 48.2706V29.9193C202.791 27.3872 202.158 25.4371 200.914 24.0649C199.66 22.6941 198.133 22.0029 196.348 22.0029C195.004 22.0029 193.775 22.2003 192.66 22.5952C191.562 22.9905 190.565 23.4843 189.712 24.0649C188.884 24.6205 188.211 25.2142 187.719 25.8571C187.228 26.4981 186.867 27.0053 186.646 27.3871V47.9111C186.646 48.7263 186.814 49.4068 187.177 49.9377C187.528 50.4668 188.055 50.8765 188.768 51.1608C189.298 51.4084 189.866 51.5798 190.488 51.7048C191.109 51.826 191.744 51.9142 192.403 51.9626V54.346H174.098V51.9626C174.679 51.9142 175.275 51.8641 175.895 51.8153C176.517 51.7652 177.049 51.6667 177.512 51.519C178.212 51.3095 178.741 50.9253 179.079 50.3828C179.43 49.8388 179.597 49.1355 179.597 48.2706V26.2375C179.597 25.4106 179.414 24.6572 179.04 23.978C178.678 23.2868 178.16 22.7206 177.512 22.2872C177.034 22.0029 176.464 21.7934 175.805 21.6563C175.146 21.5207 174.435 21.4353 173.683 21.3851V19.0402L186.115 18.237L186.646 18.7425V23.7686H186.827C187.435 23.2009 188.199 22.4967 189.102 21.6945C190.01 20.8913 190.877 20.2238 191.679 19.7198C192.623 19.1386 193.736 18.6555 195.016 18.2723C196.31 17.8905 197.759 17.6931 199.377 17.6931C202.959 17.6931 205.623 18.7662 207.357 20.8913C209.091 23.0286 209.943 25.8686 209.943 29.412V47.9742C209.943 48.8252 210.101 49.5058 210.411 50.0246C210.708 50.5435 211.225 50.9504 211.962 51.2347C212.569 51.4809 213.087 51.643 213.528 51.7391C213.969 51.8376 214.589 51.9142 215.365 51.9626V54.346ZM237.24 55.2849C231.832 55.2849 227.603 53.568 224.537 50.1472C221.483 46.7275 219.958 42.1319 219.958 36.3645C219.958 33.8588 220.372 31.5125 221.186 29.3265C222.016 27.1409 223.204 25.1644 224.771 23.3737C226.257 21.6684 228.132 20.2846 230.384 19.2362C232.622 18.1855 235.079 17.6573 237.731 17.6573C241.393 17.6573 244.382 18.4962 246.671 20.175C248.975 21.8538 250.126 24.1397 250.126 27.029C250.126 28.2391 249.827 29.3001 249.219 30.2287C248.612 31.1647 247.613 31.6245 246.216 31.6245C244.73 31.6245 243.579 31.2636 242.751 30.5352C241.935 29.8203 241.522 29.0051 241.522 28.1151C241.522 27.029 241.678 25.9174 241.975 24.7682C242.286 23.6213 242.453 22.7824 242.503 22.2491C242.053 21.5091 241.38 21.0033 240.475 20.7557C239.583 20.4951 238.612 20.3724 237.575 20.3724C236.375 20.3724 235.211 20.62 234.11 21.1138C233.011 21.6076 231.949 22.5227 230.914 23.8424C229.97 25.0539 229.221 26.6839 228.636 28.7329C228.057 30.7842 227.757 33.228 227.757 36.0695C227.757 40.5637 228.805 44.2191 230.889 47.0591C232.97 49.889 235.715 51.3095 239.09 51.3095C241.547 51.3095 243.604 50.7395 245.262 49.6047C246.905 48.468 248.442 46.7748 249.855 44.5033L252.285 46.0227C250.617 48.8749 248.418 51.1241 245.688 52.7908C242.957 54.458 240.138 55.2849 237.24 55.2849ZM288.402 45.9494C286.838 48.8025 284.743 51.0624 282.117 52.7541C279.491 54.445 276.463 55.2849 273.062 55.2849C270.047 55.2849 267.421 54.778 265.158 53.7654C262.893 52.7541 261.03 51.3819 259.567 49.6414C258.108 47.911 257.008 45.8741 256.283 43.5645C255.572 41.2433 255.207 38.7981 255.207 36.2172C255.207 33.9077 255.596 31.6361 256.361 29.399C257.136 27.1656 258.263 25.1644 259.762 23.3737C261.2 21.6684 262.982 20.2846 265.118 19.2362C267.253 18.1855 269.646 17.6573 272.297 17.6573C275.028 17.6573 277.368 18.0633 279.307 18.8915C281.263 19.7049 282.842 20.8295 284.044 22.2491C285.208 23.6092 286.074 25.2011 286.643 27.029C287.213 28.8694 287.498 30.858 287.498 32.9939V35.3904H262.75C262.75 37.7236 262.982 39.8488 263.449 41.7487C263.913 43.6635 264.653 45.3302 265.675 46.7892C266.659 48.1837 267.939 49.2832 269.528 50.0985C271.119 50.9002 273.022 51.3095 275.22 51.3095C277.474 51.3095 279.413 50.8013 281.043 49.8021C282.659 48.8025 284.239 46.9987 285.752 44.3914L288.402 45.9494ZM280.033 32.351C280.033 30.9937 279.917 29.549 279.671 28.0045C279.425 26.4614 279.05 25.1774 278.522 24.1397C277.937 23.0286 277.136 22.1264 276.129 21.4222C275.118 20.7189 273.813 20.3724 272.221 20.3724C269.567 20.3724 267.37 21.4223 265.609 23.534C263.849 25.6461 262.906 28.5852 262.75 32.351H280.033Z" fill="#1F1917"/>
<path d="M10.5432 99.5805H0.0143738V98.5205C0.313525 98.4973 0.738572 98.4689 1.30204 98.4294C1.86318 98.3923 2.25709 98.3324 2.48749 98.2506C2.84563 98.1243 3.10995 97.9463 3.27996 97.7224C3.44208 97.4985 3.52244 97.1864 3.52244 96.7901V81.4605C3.52244 81.1159 3.46576 80.8232 3.34173 80.5905C3.22328 80.3559 2.93621 80.1622 2.48749 80.0005C2.15536 79.883 1.74612 79.7711 1.24583 79.6647C0.744146 79.563 0.335822 79.5012 0.0143738 79.4803V78.423H10.5432V79.4803C10.1994 79.4896 9.79531 79.5277 9.32104 79.5936C8.85002 79.654 8.43891 79.7409 8.08494 79.8384C7.67013 79.9597 7.38816 80.152 7.24881 80.4177C7.10248 80.6876 7.03514 80.9881 7.03514 81.3133V96.628C7.03514 96.9523 7.11179 97.2431 7.27112 97.4986C7.42766 97.7527 7.70404 97.9556 8.08494 98.1029C8.31535 98.186 8.693 98.2701 9.21605 98.3639C9.73352 98.4596 10.1758 98.5098 10.5432 98.5205V99.5805Z" fill="#1F1917"/>
<path d="M31.7848 99.5805H23.8331V98.5966C24.0858 98.5781 24.3664 98.5549 24.6642 98.5349C24.9684 98.5163 25.2155 98.4745 25.4171 98.4136C25.7228 98.3268 25.9518 98.1702 26.0981 97.9463C26.2505 97.7224 26.3243 97.4317 26.3243 97.0758V89.5111C26.3243 88.4682 26.048 87.6651 25.5096 87.1002C24.9628 86.5354 24.3004 86.2498 23.5251 86.2498C22.9389 86.2498 22.4043 86.3315 21.9225 86.4945C21.4446 86.6566 21.0112 86.8606 20.64 87.1002C20.2819 87.3293 19.9883 87.5732 19.7765 87.8389C19.5628 88.1023 19.4035 88.3118 19.3101 88.4683V96.9272C19.3101 97.2645 19.3812 97.5445 19.5391 97.7633C19.6905 97.9821 19.9209 98.1494 20.2303 98.2664C20.4612 98.3677 20.7074 98.4402 20.9773 98.4903C21.2485 98.54 21.5235 98.5771 21.8106 98.5966V99.5805H13.8576V98.5966C14.1103 98.5781 14.3685 98.5549 14.6384 98.5349C14.9083 98.5163 15.1387 98.4745 15.3412 98.4136C15.6441 98.3268 15.8759 98.1702 16.0194 97.9463C16.1737 97.7224 16.2461 97.4317 16.2461 97.0758V87.9959C16.2461 87.6545 16.1671 87.3437 16.0036 87.0636C15.8471 86.7789 15.6218 86.5461 15.3412 86.3682C15.1336 86.2497 14.886 86.1629 14.5989 86.1076C14.3119 86.0523 14.0025 86.0152 13.6783 85.9957V85.0276L19.0783 84.6987L19.3101 84.9064V86.9776H19.3863C19.6511 86.7435 19.9832 86.4537 20.378 86.1234C20.7705 85.7912 21.1459 85.5177 21.4947 85.3082C21.904 85.0699 22.3885 84.8696 22.9459 84.7131C23.508 84.5561 24.1374 84.4748 24.8393 84.4748C26.3954 84.4748 27.5544 84.917 28.306 85.7912C29.0608 86.6724 29.432 87.8444 29.432 89.303V96.9523C29.432 97.3053 29.4993 97.584 29.6336 97.7977C29.7636 98.0123 29.9875 98.1809 30.3076 98.2966C30.5724 98.3993 30.7963 98.4638 30.9886 98.5047C31.1795 98.5465 31.4494 98.5771 31.7848 98.5966V99.5805Z" fill="#1F1917"/>
<path d="M52.3788 99.3106L46.7144 99.6395L46.4669 99.4305V98.0569L46.3363 98.029C45.7636 98.6097 45.0617 99.0784 44.2177 99.4486C43.3801 99.817 42.5152 100 41.6266 100C40.7045 100 39.8117 99.8105 38.9509 99.4379C38.092 99.0677 37.3391 98.5423 36.7031 97.8655C36.0579 97.1785 35.539 96.3553 35.1637 95.3929C34.7861 94.4262 34.5961 93.3624 34.5961 92.2011C34.5961 91.1383 34.7977 90.1313 35.2018 89.1739C35.6129 88.2216 36.1685 87.3883 36.8834 86.6692C37.5523 86.0017 38.3726 85.4726 39.3458 85.0722C40.3176 84.6745 41.3065 84.4771 42.3192 84.4771C43.0773 84.4771 43.8186 84.564 44.5507 84.7363C45.2805 84.9142 45.9099 85.1326 46.4325 85.4025V80.2885C46.4325 79.8695 46.3586 79.4877 46.2021 79.1481C46.0507 78.8007 45.836 78.541 45.561 78.3631C45.2526 78.175 44.842 78.0394 44.3189 77.9511C43.7978 77.8694 43.2343 77.8103 42.6322 77.768V76.8423L49.2661 76.5013L49.5123 76.7252V96.5528C49.5123 96.9045 49.5847 97.1994 49.7375 97.4442C49.8825 97.6839 50.1022 97.892 50.3893 98.0592C50.5974 98.1833 50.8951 98.2529 51.2941 98.2831C51.689 98.311 52.0472 98.3347 52.3788 98.3449V99.3106ZM46.4325 96.7284V88.1287C46.3484 87.869 46.2021 87.5926 46.0061 87.294C45.8082 86.9934 45.5611 86.7235 45.2633 86.4736C44.9484 86.2246 44.5721 86.0151 44.1438 85.8535C43.7174 85.6913 43.2171 85.6096 42.6494 85.6096C41.987 85.6096 41.379 85.7611 40.8299 86.0718C40.273 86.3761 39.7843 86.8211 39.3578 87.3967C38.9454 87.955 38.6253 88.662 38.3898 89.5218C38.1543 90.383 38.0358 91.3335 38.0358 92.3777C38.0358 93.2124 38.1264 93.971 38.3001 94.6534C38.4739 95.3353 38.7716 95.9675 39.1878 96.5505C39.5762 97.1116 40.0648 97.558 40.6664 97.8948C41.2615 98.2306 41.9698 98.4043 42.7971 98.4043C43.6728 98.4043 44.4035 98.2269 44.9776 97.879C45.5569 97.5343 46.04 97.1469 46.4325 96.7284Z" fill="#1F1917"/>
<path d="M72.179 99.3106L66.8895 99.6395L66.6433 99.4305V97.5631H66.5471C66.2837 97.8135 65.9864 98.082 65.6529 98.3639C65.3291 98.6482 64.9459 98.9037 64.5195 99.1327C64.0243 99.4012 63.5463 99.6056 63.0869 99.7422C62.6233 99.8834 61.9716 99.9503 61.1299 99.9503C59.6894 99.9503 58.5955 99.5289 57.842 98.6798C57.0941 97.8279 56.7165 96.5928 56.7165 94.973V87.9336C56.7165 87.5768 56.6398 87.2782 56.4926 87.0343C56.3463 86.7895 56.1279 86.5763 55.8409 86.397C55.643 86.2813 55.3968 86.1945 55.1046 86.1392C54.8059 86.0825 54.491 86.0468 54.1658 86.0258V85.0541L59.5788 84.6987L59.8264 84.9064V95.1207C59.8264 96.1858 60.0898 96.9839 60.618 97.5237C61.1471 98.0569 61.7765 98.3268 62.5128 98.3268C63.1129 98.3268 63.6532 98.2399 64.1242 98.0713C64.5957 97.9055 64.991 97.7067 65.3106 97.4777C65.6083 97.2696 65.8666 97.0456 66.0928 96.8166C66.3181 96.5821 66.4919 96.3623 66.6089 96.1649V87.8286C66.6089 87.5021 66.5378 87.2122 66.3785 86.9581C66.2284 86.7026 66.0139 86.4894 65.7389 86.3115C65.5424 86.1889 65.2502 86.1178 64.8563 86.0928C64.4679 86.0695 64.0308 86.0463 63.5463 86.0258V85.0541L69.4429 84.6987L69.6901 84.9064V96.582C69.6901 96.9221 69.7695 97.2078 69.9195 97.4475C70.0761 97.6858 70.2921 97.8897 70.5657 98.0569C70.7636 98.1702 70.9991 98.2399 71.269 98.2766C71.5444 98.3045 71.8473 98.3324 72.179 98.3426V99.3106Z" fill="#1F1917"/>
<path d="M85.7021 92.3777C86.1499 92.7335 86.5001 93.1455 86.7421 93.6142C86.9832 94.0829 87.1003 94.6533 87.1003 95.3302C87.1003 96.6926 86.5396 97.8028 85.415 98.6692C84.2918 99.5346 82.83 99.9661 81.0434 99.9661C80.0977 99.9661 79.2262 99.8146 78.4333 99.5029C77.6357 99.1973 77.068 98.913 76.7243 98.6534L76.4005 99.6251H75.164L74.9995 94.5099H76.1358C76.2254 94.8968 76.4108 95.3497 76.6969 95.8635C76.9784 96.3833 77.3273 96.852 77.7319 97.2696C78.1597 97.7067 78.6758 98.0713 79.2722 98.3728C79.8742 98.6692 80.5431 98.8206 81.2896 98.8206C82.3469 98.8206 83.1542 98.6022 83.7283 98.1702C84.2969 97.7368 84.5812 97.1209 84.5812 96.3108C84.5812 95.895 84.4934 95.5392 84.3141 95.2326C84.1269 94.927 83.864 94.6636 83.5147 94.4332C83.1486 94.2055 82.705 94.0012 82.1768 93.8172C81.6491 93.6351 81.0657 93.4521 80.4177 93.2747C79.9002 93.1298 79.3275 92.9425 78.6966 92.6977C78.0635 92.4543 77.5237 92.1696 77.0746 91.8379C76.5915 91.4927 76.1961 91.065 75.8882 90.5619C75.5788 90.0509 75.4288 89.4573 75.4288 88.7698C75.4288 87.5676 75.9225 86.5461 76.9115 85.7099C77.9 84.8747 79.2211 84.4591 80.8799 84.4591C81.5149 84.4591 82.1652 84.5352 82.83 84.6829C83.4938 84.8353 84.0321 85.0146 84.4535 85.2227L84.8288 84.4432H86.018L86.2642 89.1716H85.1279C84.8975 88.1181 84.3973 87.2633 83.6336 86.6028C82.875 85.939 81.9413 85.6097 80.846 85.6097C79.9453 85.6097 79.2378 85.8127 78.7204 86.2196C78.2029 86.6265 77.9437 87.1202 77.9437 87.6953C77.9437 88.1431 78.0291 88.5157 78.2029 88.8162C78.3729 89.1098 78.6256 89.3653 78.9679 89.5729C79.3001 89.7717 79.7093 89.9589 80.2096 90.1341C80.7103 90.3064 81.3291 90.5043 82.0663 90.7226C82.7905 90.9321 83.47 91.1769 84.1102 91.4524C84.7577 91.7311 85.2859 92.0419 85.7021 92.3777Z" fill="#1F1917"/>
<path d="M100.399 98.9376C99.6832 99.2066 99.0092 99.4304 98.3756 99.6144C97.7332 99.7988 96.9588 99.8936 96.0372 99.8936C94.6771 99.8936 93.7169 99.5805 93.1655 98.9575C92.6081 98.3374 92.3331 97.4618 92.3331 96.3265V86.3682H89.3992V84.937H92.3949V80.361H95.3971V84.937H100.056V86.3682H95.425V94.5874C95.425 95.2024 95.4524 95.7171 95.5025 96.1291C95.5471 96.5402 95.6669 96.9021 95.8569 97.2077C96.0307 97.4985 96.295 97.7173 96.6443 97.8632C96.9969 98.0123 97.4698 98.0871 98.0611 98.0871C98.3361 98.0871 98.7393 98.0685 99.2684 98.0216C99.8031 97.9751 100.178 97.9198 100.399 97.8473V98.9376Z" fill="#1F1917"/>
<path d="M115.258 86.77C115.258 87.2782 115.118 87.7255 114.848 88.1236C114.572 88.5157 114.152 88.708 113.577 88.708C112.964 88.708 112.492 88.5658 112.173 88.2759C111.846 87.9903 111.684 87.6702 111.684 87.3242C111.684 87.1054 111.706 86.9052 111.741 86.7291C111.779 86.5461 111.818 86.3682 111.846 86.1889C111.334 86.1889 110.728 86.3761 110.037 86.7537C109.346 87.1346 108.759 87.6702 108.276 88.367V96.9272C108.276 97.2747 108.35 97.558 108.497 97.774C108.649 97.9923 108.879 98.1596 109.199 98.2664C109.474 98.3677 109.827 98.4402 110.262 98.4903C110.695 98.54 111.07 98.5771 111.385 98.5966V99.5805H102.825V98.5966C103.078 98.5781 103.336 98.5549 103.607 98.5349C103.876 98.5163 104.107 98.4745 104.309 98.4136C104.613 98.3268 104.842 98.1702 104.99 97.9463C105.141 97.7224 105.215 97.4317 105.215 97.0758V87.9959C105.215 87.6851 105.134 87.3859 104.974 87.0844C104.815 86.7844 104.589 86.5461 104.309 86.3682C104.101 86.2497 103.853 86.1629 103.566 86.1076C103.282 86.0523 102.972 86.0152 102.646 85.9957V85.0276L108.047 84.6987L108.276 84.9064V86.9776H108.355C109.036 86.1731 109.794 85.5622 110.632 85.146C111.464 84.7289 112.229 84.5194 112.921 84.5194C113.612 84.5194 114.174 84.7233 114.607 85.1302C115.038 85.5371 115.258 86.0876 115.258 86.77Z" fill="#1F1917"/>
<path d="M125.34 99.5805H117.488V98.5966C117.741 98.5781 117.999 98.5549 118.269 98.5349C118.54 98.5163 118.769 98.4745 118.966 98.4136C119.277 98.3268 119.507 98.1702 119.652 97.9463C119.799 97.7224 119.877 97.4317 119.877 97.0758V87.9959C119.877 87.6758 119.793 87.3859 119.636 87.1202C119.478 86.8555 119.254 86.6367 118.966 86.4579C118.759 86.3366 118.46 86.2339 118.062 86.1522C117.668 86.0681 117.309 86.0152 116.976 85.9957V85.0276L122.71 84.6987L122.94 84.9064V96.897C122.94 97.2431 123.015 97.5343 123.158 97.7633C123.306 97.9872 123.541 98.1596 123.861 98.2664C124.103 98.3584 124.339 98.4295 124.57 98.4847C124.8 98.5349 125.053 98.5771 125.34 98.5966V99.5805ZM123.267 78.901C123.267 79.4645 123.065 79.9596 122.649 80.381C122.238 80.8037 121.732 81.0183 121.125 81.0183C120.569 81.0183 120.081 80.8139 119.669 80.4126C119.259 80.0108 119.051 79.5471 119.051 79.0325C119.051 78.4848 119.259 78.0105 119.669 77.6041C120.081 77.1958 120.569 76.9914 121.125 76.9914C121.754 76.9914 122.267 77.1814 122.664 77.5632C123.065 77.9487 123.267 78.3915 123.267 78.901Z" fill="#1F1917"/>
<path d="M142.571 96.1185C141.892 97.2946 140.982 98.2269 139.841 98.9219C138.699 99.62 137.383 99.9661 135.907 99.9661C134.597 99.9661 133.455 99.758 132.472 99.3408C131.488 98.9218 130.68 98.3584 130.042 97.6398C129.409 96.9272 128.931 96.0869 128.616 95.1351C128.307 94.1805 128.15 93.172 128.15 92.1092C128.15 91.156 128.317 90.2195 128.65 89.2979C128.986 88.3763 129.475 87.5532 130.128 86.816C130.752 86.1127 131.527 85.5428 132.455 85.1094C133.383 84.6774 134.423 84.4591 135.575 84.4591C136.76 84.4591 137.778 84.6262 138.622 84.9672C139.469 85.303 140.155 85.7666 140.678 86.3524C141.183 86.9108 141.561 87.5676 141.809 88.3224C142.056 89.0791 142.179 89.8994 142.179 90.7806V91.7669H131.426C131.426 92.7294 131.527 93.6035 131.73 94.3886C131.932 95.1773 132.252 95.8635 132.697 96.465C133.124 97.0406 133.679 97.4934 134.372 97.8279C135.063 98.1596 135.89 98.3268 136.846 98.3268C137.823 98.3268 138.666 98.1187 139.373 97.7067C140.077 97.2947 140.763 96.5505 141.42 95.4774L142.571 96.1185ZM138.934 90.5145C138.934 89.9561 138.884 89.3597 138.779 88.7238C138.671 88.0878 138.509 87.5574 138.278 87.1291C138.026 86.6725 137.677 86.3008 137.238 86.0101C136.801 85.7202 136.232 85.578 135.541 85.578C134.389 85.578 133.432 86.0101 132.669 86.8815C131.906 87.7506 131.493 88.9635 131.426 90.5145H138.934Z" fill="#1F1917"/>
<path d="M155.981 92.3777C156.431 92.7335 156.78 93.1455 157.021 93.6142C157.263 94.0829 157.382 94.6533 157.382 95.3302C157.382 96.6926 156.82 97.8028 155.695 98.6692C154.572 99.5346 153.11 99.9661 151.322 99.9661C150.379 99.9661 149.506 99.8146 148.714 99.5029C147.917 99.1973 147.348 98.913 147.006 98.6534L146.681 99.6251H145.444L145.28 94.5099H146.416C146.504 94.8968 146.693 95.3497 146.978 95.8635C147.26 96.3833 147.606 96.852 148.012 97.2696C148.44 97.7067 148.955 98.0713 149.551 98.3728C150.153 98.6692 150.822 98.8206 151.57 98.8206C152.627 98.8206 153.436 98.6022 154.008 98.1702C154.577 97.7368 154.863 97.1209 154.863 96.3108C154.863 95.895 154.773 95.5392 154.593 95.2326C154.407 94.927 154.144 94.6636 153.795 94.4332C153.429 94.2055 152.985 94.0012 152.457 93.8172C151.929 93.6351 151.344 93.4521 150.7 93.2747C150.182 93.1298 149.608 92.9425 148.979 92.6977C148.342 92.4543 147.804 92.1696 147.354 91.8379C146.87 91.4927 146.478 91.065 146.168 90.5619C145.859 90.0509 145.707 89.4573 145.707 88.7698C145.707 87.5676 146.201 86.5461 147.191 85.7099C148.18 84.8747 149.501 84.4591 151.159 84.4591C151.794 84.4591 152.447 84.5352 153.11 84.6829C153.773 84.8353 154.313 85.0146 154.734 85.2227L155.111 84.4432H156.297L156.545 89.1716H155.408C155.178 88.1181 154.677 87.2633 153.912 86.6028C153.155 85.939 152.22 85.6097 151.126 85.6097C150.225 85.6097 149.517 85.8127 149.001 86.2196C148.483 86.6265 148.225 87.1202 148.225 87.6953C148.225 88.1431 148.31 88.5157 148.483 88.8162C148.653 89.1098 148.906 89.3653 149.248 89.5729C149.58 89.7717 149.99 89.9589 150.49 90.1341C150.99 90.3064 151.609 90.5043 152.345 90.7226C153.071 90.9321 153.75 91.1769 154.392 91.4524C155.038 91.7311 155.566 92.0419 155.981 92.3777Z" fill="#1F1917"/>
<path d="M187.159 93.2891L186.665 99.5805H168.404V98.5205C168.668 98.4973 169.049 98.4638 169.55 98.4136C170.05 98.3672 170.399 98.3003 170.595 98.2213C170.922 98.0927 171.163 97.9055 171.309 97.6556C171.46 97.4052 171.533 97.0916 171.533 96.7033V81.553C171.533 81.2157 171.472 80.9171 171.342 80.6574C171.22 80.3968 170.967 80.1887 170.595 80.0322C170.341 79.9137 169.988 79.7976 169.533 79.6791C169.077 79.5685 168.701 79.5012 168.404 79.4803V78.423H178.267V79.4803C177.959 79.4896 177.565 79.5369 177.076 79.6289C176.587 79.72 176.232 79.7975 176.014 79.8672C175.637 79.9857 175.385 80.1887 175.243 80.4795C175.109 80.7679 175.041 81.0736 175.041 81.4052V95.6144C175.041 96.2699 175.075 96.7794 175.149 97.1418C175.22 97.5041 175.385 97.7828 175.649 97.9872C175.902 98.1651 176.277 98.2808 176.778 98.3323C177.278 98.3885 177.974 98.4136 178.875 98.4136C179.285 98.4136 179.706 98.41 180.146 98.3905C180.584 98.3672 180.999 98.3286 181.399 98.2683C181.78 98.2074 182.135 98.1261 182.461 98.0234C182.782 97.9166 183.023 97.7847 183.173 97.6254C183.623 97.1688 184.146 96.4762 184.748 95.5504C185.344 94.6195 185.761 93.8665 185.991 93.2909L187.159 93.2891Z" fill="#1F1917"/>
<path d="M197.028 99.5805H189.178V98.5966C189.429 98.5781 189.688 98.5549 189.958 98.5349C190.228 98.5163 190.459 98.4745 190.655 98.4136C190.964 98.3268 191.193 98.1702 191.339 97.9463C191.487 97.7224 191.563 97.4317 191.563 97.0758V87.9959C191.563 87.6758 191.482 87.3859 191.322 87.1202C191.167 86.8555 190.94 86.6367 190.655 86.4579C190.447 86.3366 190.149 86.2339 189.749 86.1522C189.355 86.0681 188.996 86.0152 188.664 85.9957V85.0276L194.398 84.6987L194.629 84.9064V96.897C194.629 97.2431 194.701 97.5343 194.848 97.7633C194.993 97.9872 195.229 98.1596 195.549 98.2664C195.791 98.3584 196.027 98.4295 196.256 98.4847C196.488 98.5349 196.741 98.5771 197.028 98.5966V99.5805ZM194.954 78.901C194.954 79.4645 194.751 79.9596 194.335 80.381C193.925 80.8037 193.42 81.0183 192.813 81.0183C192.255 81.0183 191.766 80.8139 191.357 80.4126C190.947 80.0108 190.739 79.5471 190.739 79.0325C190.739 78.4848 190.947 78.0105 191.357 77.6041C191.766 77.1958 192.255 76.9914 192.813 76.9914C193.442 76.9914 193.953 77.1814 194.352 77.5632C194.751 77.9487 194.954 78.3915 194.954 78.901Z" fill="#1F1917"/>
<path d="M227.648 99.5805H219.729V98.5966C219.981 98.5781 220.234 98.5549 220.492 98.5349C220.751 98.5163 220.981 98.4745 221.178 98.4136C221.488 98.3268 221.712 98.1702 221.859 97.9463C222.009 97.7224 222.084 97.4317 222.084 97.0758V89.4874C222.084 88.4488 221.825 87.6545 221.303 87.0896C220.779 86.5303 220.128 86.2498 219.352 86.2498C218.812 86.2498 218.307 86.3259 217.835 86.4736C217.364 86.6209 216.929 86.8318 216.535 87.1002C216.215 87.319 215.952 87.5532 215.739 87.8059C215.518 88.0627 215.361 88.2709 215.248 88.4432V96.9272C215.248 97.2747 215.316 97.558 215.445 97.7828C215.579 98.0067 215.805 98.1809 216.121 98.2966C216.373 98.3886 216.604 98.4559 216.805 98.4996C217.007 98.5414 217.272 98.5771 217.605 98.5966V99.5805H209.848V98.5966C210.101 98.5781 210.348 98.5549 210.584 98.5349C210.82 98.5163 211.033 98.4745 211.23 98.4136C211.54 98.3268 211.763 98.1702 211.916 97.9463C212.061 97.7224 212.136 97.4317 212.136 97.0758V89.4874C212.136 88.4488 211.877 87.6545 211.353 87.0896C210.831 86.5303 210.185 86.2498 209.404 86.2498C208.863 86.2498 208.362 86.3259 207.891 86.4788C207.42 86.6367 206.981 86.8448 206.586 87.1146C206.267 87.3334 206.004 87.5769 205.784 87.8533C205.566 88.1287 205.396 88.3313 205.289 88.4683V96.897C205.289 97.2338 205.361 97.5185 205.521 97.7475C205.671 97.9765 205.9 98.1494 206.212 98.2664C206.441 98.3677 206.677 98.4402 206.918 98.4903C207.16 98.54 207.431 98.5771 207.724 98.5966V99.5805H199.838V98.5966C200.091 98.5781 200.349 98.5549 200.619 98.5349C200.887 98.5163 201.119 98.4745 201.322 98.4136C201.624 98.3268 201.855 98.1702 202.003 97.9463C202.153 97.7224 202.226 97.4317 202.226 97.0758V87.9336C202.226 87.6149 202.146 87.3293 201.984 87.0738C201.827 86.8262 201.602 86.6079 201.322 86.4272C201.114 86.3115 200.856 86.214 200.546 86.1392C200.235 86.0625 199.921 86.0152 199.59 85.9957V85.0276L205.024 84.6987L205.256 84.9064V87.0092H205.367C205.643 86.7593 205.98 86.468 206.374 86.1285C206.768 85.7912 207.138 85.5177 207.476 85.3082C207.862 85.0699 208.341 84.8696 208.921 84.7131C209.493 84.5561 210.116 84.4748 210.787 84.4748C211.842 84.4748 212.747 84.734 213.505 85.2436C214.259 85.756 214.804 86.3733 215.137 87.1002C215.529 86.7486 215.878 86.4434 216.182 86.1838C216.479 85.9204 216.879 85.6398 217.373 85.3383C217.789 85.0791 218.284 84.8696 218.846 84.7131C219.414 84.5561 220.043 84.4748 220.735 84.4748C222.106 84.4748 223.19 84.8803 223.995 85.6965C224.793 86.5154 225.197 87.7664 225.197 89.4572V96.9272C225.197 97.2747 225.259 97.558 225.393 97.7828C225.523 98.0067 225.747 98.1809 226.069 98.2966C226.323 98.3886 226.569 98.4559 226.817 98.4996C227.064 98.5414 227.343 98.5771 227.648 98.5966V99.5805Z" fill="#1F1917"/>
<path d="M238.241 99.5805H230.389V98.5966C230.643 98.5781 230.901 98.5549 231.171 98.5349C231.441 98.5163 231.671 98.4745 231.868 98.4136C232.177 98.3268 232.408 98.1702 232.553 97.9463C232.7 97.7224 232.779 97.4317 232.779 97.0758V87.9959C232.779 87.6758 232.695 87.3859 232.535 87.1202C232.378 86.8555 232.155 86.6367 231.868 86.4579C231.66 86.3366 231.362 86.2339 230.963 86.1522C230.57 86.0681 230.211 86.0152 229.878 85.9957V85.0276L235.611 84.6987L235.842 84.9064V96.897C235.842 97.2431 235.915 97.5343 236.06 97.7633C236.208 97.9872 236.443 98.1596 236.763 98.2664C237.005 98.3584 237.24 98.4295 237.473 98.4847C237.702 98.5349 237.955 98.5771 238.241 98.5966V99.5805ZM236.168 78.901C236.168 79.4645 235.967 79.9596 235.548 80.381C235.14 80.8037 234.634 81.0183 234.026 81.0183C233.47 81.0183 232.982 80.8139 232.571 80.4126C232.16 80.0108 231.953 79.5471 231.953 79.0325C231.953 78.4848 232.16 78.0105 232.571 77.6041C232.982 77.1958 233.47 76.9914 234.026 76.9914C234.656 76.9914 235.167 77.1814 235.566 77.5632C235.967 77.9487 236.168 78.3915 236.168 78.901Z" fill="#1F1917"/>
<path d="M251.078 98.9376C250.364 99.2066 249.691 99.4304 249.055 99.6144C248.414 99.7988 247.637 99.8936 246.717 99.8936C245.357 99.8936 244.395 99.5805 243.845 98.9575C243.289 98.3374 243.013 97.4618 243.013 96.3265V86.3682H240.079V84.937H243.074V80.361H246.075V84.937H250.735V86.3682H246.104V94.5874C246.104 95.2024 246.132 95.7171 246.182 96.1291C246.229 96.5402 246.346 96.9021 246.537 97.2077C246.712 97.4985 246.976 97.7173 247.322 97.8632C247.678 98.0123 248.149 98.0871 248.741 98.0871C249.016 98.0871 249.42 98.0685 249.948 98.0216C250.483 97.9751 250.859 97.9198 251.078 97.8473V98.9376Z" fill="#1F1917"/>
<path d="M267.928 96.1185C267.248 97.2946 266.338 98.2269 265.196 98.9219C264.055 99.62 262.74 99.9661 261.261 99.9661C259.951 99.9661 258.812 99.758 257.829 99.3408C256.844 98.9218 256.034 98.3584 255.4 97.6398C254.763 96.9272 254.285 96.0869 253.971 95.1351C253.663 94.1805 253.506 93.172 253.506 92.1092C253.506 91.156 253.674 90.2195 254.005 89.2979C254.343 88.3763 254.832 87.5532 255.484 86.816C256.108 86.1127 256.885 85.5428 257.812 85.1094C258.737 84.6774 259.778 84.4591 260.93 84.4591C262.116 84.4591 263.132 84.6262 263.976 84.9672C264.826 85.303 265.512 85.7666 266.033 86.3524C266.54 86.9108 266.915 87.5676 267.163 88.3224C267.411 89.0791 267.535 89.8994 267.535 90.7806V91.7669H256.781C256.781 92.7294 256.885 93.6035 257.086 94.3886C257.289 95.1773 257.609 95.8635 258.052 96.465C258.479 97.0406 259.036 97.4934 259.726 97.8279C260.417 98.1596 261.245 98.3268 262.2 98.3268C263.177 98.3268 264.023 98.1187 264.73 97.7067C265.432 97.2947 266.118 96.5505 266.776 95.4774L267.928 96.1185ZM264.291 90.5145C264.291 89.9561 264.241 89.3597 264.133 88.7238C264.028 88.0878 263.864 87.5574 263.633 87.1291C263.38 86.6725 263.033 86.3008 262.594 86.0101C262.156 85.7202 261.588 85.578 260.897 85.578C259.743 85.578 258.789 86.0101 258.024 86.8815C257.26 87.7506 256.85 88.9635 256.781 90.5145H264.291Z" fill="#1F1917"/>
<path d="M288.402 99.3106L282.737 99.6395L282.489 99.4305V98.0569L282.361 98.029C281.787 98.6097 281.085 99.0784 280.241 99.4486C279.404 99.817 278.539 100 277.651 100C276.728 100 275.835 99.8105 274.974 99.4379C274.114 99.0677 273.363 98.5423 272.728 97.8655C272.08 97.1785 271.563 96.3553 271.187 95.3929C270.809 94.4262 270.62 93.3624 270.62 92.2011C270.62 91.1383 270.821 90.1313 271.227 89.1739C271.636 88.2216 272.193 87.3883 272.907 86.6692C273.574 86.0017 274.396 85.4726 275.368 85.0722C276.341 84.6745 277.33 84.4771 278.342 84.4771C279.101 84.4771 279.842 84.564 280.573 84.7363C281.304 84.9142 281.933 85.1326 282.455 85.4025V80.2885C282.455 79.8695 282.382 79.4877 282.226 79.1481C282.074 78.8007 281.861 78.541 281.585 78.3631C281.276 78.175 280.866 78.0394 280.342 77.9511C279.82 77.8694 279.257 77.8103 278.657 77.768V76.8423L285.288 76.5013L285.536 76.7252V96.5528C285.536 96.9045 285.608 97.1994 285.762 97.4442C285.906 97.6839 286.126 97.892 286.411 98.0592C286.619 98.1833 286.918 98.2529 287.319 98.2831C287.711 98.311 288.072 98.3347 288.402 98.3449V99.3106ZM282.455 96.7284V88.1287C282.373 87.869 282.226 87.5926 282.029 87.294C281.832 86.9934 281.585 86.7235 281.287 86.4736C280.972 86.2246 280.595 86.0151 280.167 85.8535C279.741 85.6913 279.241 85.6096 278.673 85.6096C278.009 85.6096 277.403 85.7611 276.853 86.0718C276.295 86.3761 275.806 86.8211 275.379 87.3967C274.969 87.955 274.649 88.662 274.413 89.5218C274.177 90.383 274.057 91.3335 274.057 92.3777C274.057 93.2124 274.149 93.971 274.324 94.6534C274.496 95.3353 274.795 95.9675 275.21 96.5505C275.6 97.1116 276.088 97.558 276.689 97.8948C277.285 98.2306 277.993 98.4043 278.819 98.4043C279.695 98.4043 280.427 98.2269 281 97.879C281.579 97.5343 282.063 97.1469 282.455 96.7284Z" fill="#1F1917"/>
</svg>
